<?xml version="1.0" standalone="no"?>
<!DOCTYPE svg PUBLIC "-//W3C//DTD SVG 20010904//EN" "http://www.w3.org/TR/2001/REC-SVG-20010904/DTD/svg10.dtd">
<svg version="1.0" xmlns="http://www.w3.org/2000/svg" width="900.000000pt" height="708.000000pt"
    viewBox="0 0 900.000000 708.000000" preserveAspectRatio="xMidYMid meet">
    <metadata>
        Created by potrace 1.10, written by Peter Selinger 2001-2011
    </metadata>
    <g transform="translate(0.000000,708.000000) scale(0.100000,-0.100000)" fill="#ffffff" stroke="none">
        <path d="M1740 6283 c0 -4 0 -1250 -1 -2768 0 -1518 -1 -2768 0 -2778 1 -16
29 -17 484 -15 l482 3 3 267 c1 148 1 269 0 270 -2 1 -95 4 -208 7 l-205 6 4
2225 c2 1224 5 2228 8 2233 7 11 1446 9 1543 -4 216 -27 392 -131 531 -314 64
-85 117 -193 139 -285 5 -19 13 -53 19 -75 6 -22 11 -96 11 -165 0 -69 -5
-143 -11 -165 -6 -22 -14 -56 -19 -75 -32 -131 -114 -264 -232 -376 -120 -114
-222 -169 -403 -215 -33 -8 -165 -14 -385 -18 -264 -5 -335 -9 -335 -19 0 -7
56 -90 125 -183 122 -167 252 -347 405 -559 216 -300 257 -357 340 -474 97
-136 238 -330 335 -463 l60 -83 320 0 c360 0 345 -4 288 74 -103 140 -291 398
-369 506 -160 225 -302 420 -406 561 -102 138 -119 175 -85 185 55 17 227 104
312 158 259 166 419 377 546 721 99 266 96 651 -6 915 -12 30 -25 66 -30 80
-8 27 -58 120 -98 185 -78 125 -227 282 -352 370 -192 136 -320 197 -495 235
-27 6 -63 16 -80 23 -35 14 -2235 23 -2235 10z" />
        <path d="M5060 6281 c0 -5 7 -15 17 -22 52 -44 313 -424 313 -457 0 -5 10 -18
23 -30 l23 -22 690 -2 689 -3 5 -485 5 -485 273 -3 272 -2 0 760 0 760 -1155
0 c-656 0 -1155 -4 -1155 -9z" />
        <path d="M5312 3508 c-18 -18 -17 -513 1 -525 6 -4 318 -10 692 -13 678 -5
680 -5 715 -27 48 -30 74 -60 93 -111 15 -38 17 -112 16 -705 0 -606 -2 -666
-18 -705 -21 -53 -61 -96 -115 -125 l-41 -22 -1335 -1 -1335 -2 0 -273 0 -274
1285 -3 c1311 -3 1456 0 1565 35 244 77 374 186 473 396 18 37 32 73 32 80 0
6 7 31 15 53 12 35 15 179 17 860 3 886 6 837 -47 959 -7 17 -16 37 -19 45
-39 90 -169 224 -277 283 -67 37 -121 56 -194 69 -91 17 -1507 22 -1523 6z" />
    </g>
</svg>