<?xml version="1.0" standalone="no"?>
<!DOCTYPE svg PUBLIC "-//W3C//DTD SVG 20010904//EN" "http://www.w3.org/TR/2001/REC-SVG-20010904/DTD/svg10.dtd">
<svg version="1.0" xmlns="http://www.w3.org/2000/svg" width="210.000000pt" height="110.000000pt"
    viewBox="0 0 210.000000 110.000000" preserveAspectRatio="xMidYMid meet">
    <metadata>
        Created by potrace 1.10, written by Peter Selinger 2001-2011
    </metadata>
    <g transform="translate(0.000000,110.000000) scale(0.100000,-0.100000)" fill="#ffffff" stroke="none">
        <path d="M685 944 c-210 -29 -330 -84 -374 -173 -33 -66 -34 -86 -4 -121 l27
-32 103 5 c57 4 108 9 113 12 19 12 10 -11 -20 -53 -31 -41 -38 -45 -97 -57
-21 -4 -47 -23 -73 -52 -41 -47 -49 -78 -29 -114 8 -17 2 -32 -35 -91 -25 -39
-50 -86 -57 -105 -10 -31 -9 -37 12 -59 12 -13 30 -26 40 -29 33 -11 88 36
130 113 23 41 48 76 56 79 8 3 114 -44 236 -106 122 -61 233 -111 246 -111 14
0 37 11 51 25 23 22 28 23 52 11 65 -34 231 -44 371 -22 133 20 242 69 290
129 99 122 61 238 -103 315 -71 34 -184 72 -210 72 -10 0 -23 6 -29 14 -10 12
-8 18 11 30 35 23 97 43 157 50 29 3 58 9 62 12 5 3 9 -10 9 -29 0 -70 34 -71
169 -4 95 48 117 72 126 138 13 89 -54 129 -212 129 -220 -1 -410 -71 -480
-177 -20 -30 -33 -29 -33 1 0 29 -23 84 -48 112 -46 53 -153 84 -312 89 -63 2
-128 2 -145 -1z m285 -49 c81 -17 115 -33 148 -67 77 -83 26 -237 -98 -301
-66 -33 -202 -62 -368 -78 l-123 -12 88 -32 c113 -40 287 -118 336 -150 37
-25 37 -25 37 -95 0 -54 -4 -72 -15 -77 -9 -3 -119 47 -263 120 l-247 126 -37
-57 c-20 -31 -44 -74 -52 -94 -9 -20 -26 -44 -38 -52 -26 -18 -64 -21 -73 -6
-8 13 43 105 96 177 22 29 39 54 39 56 0 3 -11 8 -25 11 -32 8 -32 30 2 75 35
46 37 48 93 55 34 5 52 13 63 29 8 13 49 67 91 120 42 54 76 99 76 101 0 2
-52 -7 -115 -19 -112 -21 -149 -33 -109 -36 10 -1 26 -3 34 -4 8 -1 23 -3 33
-4 10 0 15 -5 12 -11 -4 -6 -55 -10 -121 -10 l-114 0 0 25 c0 32 31 93 62 122
41 38 149 74 288 96 64 10 235 6 300 -8z m870 -29 c32 -12 35 -16 38 -57 4
-58 -20 -90 -85 -114 -26 -10 -69 -30 -96 -46 -55 -33 -57 -34 -57 -14 0 13
19 29 96 83 16 11 3 12 -77 7 -167 -9 -328 -64 -344 -116 -10 -31 9 -43 119
-73 125 -34 237 -88 277 -134 28 -32 31 -40 27 -88 -8 -95 -74 -153 -223 -196
-68 -19 -104 -23 -235 -23 -135 0 -160 3 -195 20 -49 25 -57 59 -25 110 27 43
70 67 113 63 l32 -4 -35 -15 -35 -16 39 -8 c53 -11 279 2 341 19 54 14 130 50
139 65 8 12 -49 60 -90 77 -18 7 -72 22 -120 33 -101 22 -179 53 -211 83 -28
26 -29 63 -7 139 30 102 132 172 299 205 80 16 271 16 315 0z m-665 -296 c4
-22 15 -50 26 -64 28 -35 107 -72 212 -96 99 -24 177 -54 177 -69 0 -10 -65
-36 -115 -47 -16 -3 -80 -9 -140 -11 -102 -5 -111 -4 -129 16 -35 39 -102 24
-162 -36 l-23 -22 -29 27 c-29 26 -95 61 -209 112 -29 13 -53 26 -53 29 0 4
48 16 108 28 59 11 132 31 164 42 60 23 133 80 143 112 10 31 23 22 30 -21z" />
        <path d="M778 754 c-18 -4 -28 -12 -28 -23 0 -22 -43 -89 -104 -164 -31 -39
-41 -57 -29 -53 10 3 63 15 118 27 229 49 335 98 335 155 0 16 -10 26 -41 38
-41 17 -199 29 -251 20z m195 -43 c50 -12 55 -18 31 -41 -29 -29 -146 -68
-262 -87 -32 -5 -32 -5 -21 21 7 14 15 26 19 26 4 0 13 14 20 30 7 17 22 37
34 45 23 17 119 20 179 6z" />
    </g>
</svg>